<svg width="343" height="44" viewBox="0 0 343 44" fill="none" xmlns="http://www.w3.org/2000/svg">
<rect x="0.5" y="0.5" width="342" height="43" rx="11.5" fill="white" stroke="#B0B0BA"/>
<path fill-rule="evenodd" clip-rule="evenodd" d="M38 22.2273C38 21.5182 37.9351 20.8364 37.8145 20.1819H28.2041V24.0501H33.6957C33.4592 25.3001 32.7403 26.3592 31.6596 27.0682V29.5773H34.9573C36.8868 27.8364 38 25.2728 38 22.2273V22.2273Z" fill="#4285F4"/>
<path fill-rule="evenodd" clip-rule="evenodd" d="M28.2037 31.9999C30.9588 31.9999 33.2686 31.1044 34.9569 29.5772L31.6592 27.0681C30.7454 27.6681 29.5766 28.0226 28.2037 28.0226C25.546 28.0226 23.2965 26.2635 22.494 23.8999H19.085V26.4908C20.764 29.759 24.2148 31.9999 28.2037 31.9999V31.9999Z" fill="#34A853"/>
<path fill-rule="evenodd" clip-rule="evenodd" d="M22.4944 23.8999C22.2903 23.2999 22.1744 22.659 22.1744 21.9999C22.1744 21.3408 22.2903 20.6999 22.4944 20.0999V17.509H19.0853C18.3942 18.859 18 20.3863 18 21.9999C18 23.6136 18.3942 25.1408 19.0853 26.4908L22.4944 23.8999V23.8999Z" fill="#FFCE00"/>
<path fill-rule="evenodd" clip-rule="evenodd" d="M28.2037 15.9773C29.7018 15.9773 31.0469 16.4818 32.1044 17.4727L35.0311 14.6045C33.264 12.9909 30.9542 12 28.2037 12C24.2148 12 20.764 14.2409 19.085 17.5091L22.494 20.1C23.2965 17.7364 25.546 15.9773 28.2037 15.9773V15.9773Z" fill="#EA4335"/>
<path d="M140.793 23.024H145.749V21.54H144.055C144.377 19.734 144.377 18.432 144.377 17.214V16.052H135.431V17.536H142.571C142.571 18.656 142.543 19.902 142.221 21.54H134.101V23.024H138.917V28.204H140.793V23.024ZM158.6 21.302V19.846H156.99C157.228 18.558 157.228 17.536 157.228 16.696V15.814H148.366V17.284H155.408C155.394 17.998 155.352 18.782 155.142 19.846H146.924V21.302H158.6ZM157.522 26.678H150.088V25.81H157.2V22.184H148.226V23.612H155.352V24.452H148.24V28.106H157.522V26.678ZM171.437 26.79V25.278H166.509V23.36H170.415V21.876H162.939V20.434H170.121V16.136H161.091V17.606H168.301V18.992H161.105V23.36H164.661V25.278H159.761V26.79H171.437ZM186.409 28.232V15.296H184.561V28.232H186.409ZM180.725 18.18V16.304H178.877V18.18C178.877 20.7 177.813 23.164 175.559 24.144L176.665 25.67C178.247 24.942 179.255 23.584 179.829 21.834C180.403 23.416 181.369 24.69 182.881 25.362L183.931 23.864C181.747 22.926 180.725 20.574 180.725 18.18ZM198.714 19.944H200.422V18.418H198.714V15.31H196.866V23.08H198.714V19.944ZM195.326 22.632L196.264 21.204C194.248 20.532 193.352 19.048 193.31 17.536H195.83V16.066H188.858V17.536H191.42C191.378 19.146 190.468 20.756 188.368 21.428L189.334 22.87C190.846 22.38 191.826 21.386 192.4 20.14C192.96 21.274 193.926 22.184 195.326 22.632ZM198.714 23.654H190.104V25.124H196.866V28.218H198.714V23.654ZM211.523 21.876H213.371V20.35H211.523V15.31H209.675V28.204H211.523V21.876ZM208.835 17.214H206.035V15.534H204.187V17.214H201.331V18.684H208.835V17.214ZM205.125 19.412C203.249 19.412 201.849 20.686 201.849 22.478C201.849 24.312 203.249 25.572 205.125 25.572C206.987 25.572 208.373 24.312 208.373 22.478C208.373 20.686 206.987 19.412 205.125 19.412ZM205.125 24.06C204.229 24.06 203.613 23.5 203.613 22.492C203.613 21.484 204.229 20.91 205.125 20.91C206.021 20.91 206.623 21.512 206.623 22.478C206.623 23.486 206.021 24.06 205.125 24.06ZM224.976 28.19V15.296H223.114V28.19H224.976ZM221.14 16.64H214.952V18.11H219.25C218.984 20.966 217.556 22.996 214.266 24.564L215.232 26.02C219.81 23.822 221.14 20.574 221.14 16.64Z" fill="black" fill-opacity="0.85"/>
</svg>
