<svg width="343" height="48" viewBox="0 0 343 48" fill="none" xmlns="http://www.w3.org/2000/svg">
<rect width="343" height="48" rx="24" fill="#FCB600"/>
<path d="M141.331 25.248V23.568H135.715V22.352H139.811V20.672H131.715V18.944H139.731V17.264H129.619V22.352H133.603V23.568H128.003V25.248H141.331ZM134.611 25.968C131.427 25.968 129.507 26.944 129.507 28.688C129.507 30.416 131.427 31.392 134.611 31.392C137.795 31.392 139.731 30.416 139.731 28.688C139.731 26.944 137.795 25.968 134.611 25.968ZM134.611 29.792C132.611 29.792 131.635 29.456 131.635 28.688C131.635 27.936 132.627 27.568 134.611 27.568C136.595 27.568 137.587 27.936 137.587 28.688C137.587 29.456 136.611 29.792 134.611 29.792ZM154.946 31.408V16.624H152.834V31.408H154.946ZM147.394 17.616C145.09 17.616 143.346 19.136 143.346 21.248C143.346 23.36 145.09 24.88 147.394 24.88C149.698 24.88 151.458 23.36 151.458 21.248C151.458 19.136 149.698 17.616 147.394 17.616ZM147.394 19.424C148.546 19.424 149.394 20.096 149.394 21.248C149.394 22.4 148.546 23.072 147.394 23.072C146.242 23.072 145.394 22.4 145.394 21.248C145.394 20.096 146.242 19.424 147.394 19.424ZM142.722 26.704L142.994 28.416C145.538 28.416 148.994 28.384 152.162 27.744L152.034 26.224C148.93 26.688 145.314 26.704 142.722 26.704ZM157.313 19.312H166.001V17.728H162.721V16.528H160.593V17.728H157.313V19.312ZM170.881 21.488V19.76H168.929V16.624H166.817V24.592H168.929V21.488H170.881ZM165.281 22.08C165.281 20.592 163.857 19.664 161.665 19.664C159.489 19.664 158.049 20.592 158.049 22.08C158.049 23.552 159.489 24.48 161.665 24.48C163.857 24.48 165.281 23.552 165.281 22.08ZM160.065 22.08C160.065 21.456 160.689 21.152 161.665 21.152C162.641 21.152 163.265 21.456 163.265 22.08C163.265 22.704 162.641 22.992 161.665 22.992C160.689 22.992 160.065 22.704 160.065 22.08ZM169.345 29.728H161.313V28.912H168.929V25.168H159.201V26.704H166.849V27.472H159.217V31.264H169.345V29.728ZM184.671 31.36V16.624H182.671V31.36H184.671ZM181.535 16.96H179.567V22.272H177.919C178.287 21.056 178.399 19.792 178.399 18.384H172.623V20.064H176.303C176.047 22.96 174.751 25.088 171.807 26.832L173.007 28.32C175.135 27.104 176.431 25.648 177.263 23.968H179.567V30.72H181.535V16.96ZM200.014 29.664V27.952H197.054V24.352C198.158 23.664 198.83 22.608 198.83 21.328C198.83 18.912 196.51 17.36 193.326 17.36C190.174 17.36 187.838 18.912 187.838 21.328C187.822 22.608 188.462 23.664 189.614 24.352V27.952H186.67V29.664H200.014ZM193.326 19.024C195.374 19.024 196.75 19.856 196.75 21.328C196.75 22.8 195.374 23.632 193.326 23.632C191.278 23.632 189.918 22.8 189.918 21.328C189.918 19.856 191.278 19.024 193.326 19.024ZM194.958 27.952H191.71V25.136C192.222 25.232 192.766 25.28 193.326 25.28C193.902 25.28 194.446 25.232 194.958 25.136V27.952Z" fill="white"/>
</svg>
