<svg width="343" height="44" viewBox="0 0 343 44" fill="none" xmlns="http://www.w3.org/2000/svg">
<rect width="343" height="44" rx="12" fill="#333333"/>
<path fill-rule="evenodd" clip-rule="evenodd" d="M30.5327 15.0318C29.8925 15.8048 28.8175 16.3846 27.9599 16.3846C27.8632 16.3846 27.7666 16.3725 27.7062 16.3605C27.6941 16.3121 27.67 16.1672 27.67 16.0223C27.67 15.0318 28.1652 14.0655 28.7088 13.4495C29.3973 12.6402 30.5447 12.0362 31.499 12C31.5231 12.1087 31.5352 12.2416 31.5352 12.3744C31.5352 13.3528 31.1125 14.3312 30.5327 15.0318ZM26.3321 30.4346C25.9016 30.6195 25.4937 30.7947 24.9402 30.7947C23.7565 30.7947 22.9352 29.7076 21.993 28.3789C20.8938 26.8087 20 24.3809 20 22.0859C20 18.3898 22.4037 16.433 24.7711 16.433C25.4621 16.433 26.0935 16.6864 26.6549 16.9116C27.1043 17.092 27.5089 17.2543 27.8633 17.2543C28.1707 17.2543 28.5539 17.1029 29.0004 16.9265C29.6241 16.68 30.3715 16.3847 31.2092 16.3847C31.7406 16.3847 33.6853 16.433 34.9657 18.269C34.9583 18.2747 34.9427 18.285 34.9199 18.3001C34.6048 18.508 32.9243 19.6174 32.9243 21.8926C32.9243 24.707 35.3763 25.7095 35.4609 25.7337C35.4587 25.7391 35.4537 25.7546 35.4458 25.7792C35.3652 26.0287 34.9809 27.218 34.1564 28.4273C33.3471 29.5868 32.4895 30.7706 31.2092 30.7706C30.5781 30.7706 30.176 30.5925 29.7608 30.4086C29.3178 30.2124 28.8598 30.0096 28.0928 30.0096C27.3217 30.0096 26.8128 30.2281 26.3321 30.4346Z" fill="white"/>
<path d="M129.929 24.34H133.289L134.017 27H136.187L132.855 16.64H130.419L127.101 27H129.201L129.929 24.34ZM132.533 21.596L132.841 22.73H130.377L130.685 21.596C131.007 20.518 131.301 19.342 131.567 18.208H131.623C131.945 19.328 132.211 20.518 132.533 21.596ZM138.87 19.16H137.19V30.01H139.234V27.63L139.178 26.342C139.78 26.888 140.438 27.196 141.124 27.196C142.846 27.196 144.456 25.642 144.456 22.954C144.456 20.546 143.308 18.964 141.376 18.964C140.536 18.964 139.724 19.412 139.066 19.972H139.01L138.87 19.16ZM140.662 25.502C140.228 25.502 139.738 25.348 139.234 24.914V21.47C139.78 20.924 140.242 20.658 140.788 20.658C141.866 20.658 142.342 21.47 142.342 22.982C142.342 24.718 141.614 25.502 140.662 25.502ZM147.838 19.16H146.158V30.01H148.202V27.63L148.146 26.342C148.748 26.888 149.406 27.196 150.092 27.196C151.814 27.196 153.424 25.642 153.424 22.954C153.424 20.546 152.276 18.964 150.344 18.964C149.504 18.964 148.692 19.412 148.034 19.972H147.978L147.838 19.16ZM149.63 25.502C149.196 25.502 148.706 25.348 148.202 24.914V21.47C148.748 20.924 149.21 20.658 149.756 20.658C150.834 20.658 151.31 21.47 151.31 22.982C151.31 24.718 150.582 25.502 149.63 25.502ZM155.126 15.828V27H157.17V15.828H155.126ZM162.902 27.196C163.91 27.196 164.862 26.874 165.646 26.328L164.946 25.068C164.386 25.418 163.84 25.614 163.182 25.614C162.006 25.614 161.18 24.942 161.012 23.654H165.842C165.898 23.472 165.94 23.094 165.94 22.716C165.94 20.546 164.82 18.964 162.664 18.964C160.802 18.964 159.01 20.56 159.01 23.094C159.01 25.67 160.718 27.196 162.902 27.196ZM164.176 22.296H160.984C161.138 21.162 161.866 20.56 162.692 20.56C163.7 20.56 164.176 21.232 164.176 22.296ZM178.764 26.79V25.278H173.836V23.36H177.742V21.876H170.266V20.434H177.448V16.136H168.418V17.606H175.628V18.992H168.432V23.36H171.988V25.278H167.088V26.79H178.764ZM193.737 28.232V15.296H191.889V28.232H193.737ZM188.053 18.18V16.304H186.205V18.18C186.205 20.7 185.141 23.164 182.887 24.144L183.993 25.67C185.575 24.942 186.583 23.584 187.157 21.834C187.731 23.416 188.697 24.69 190.209 25.362L191.259 23.864C189.075 22.926 188.053 20.574 188.053 18.18ZM206.042 19.944H207.75V18.418H206.042V15.31H204.194V23.08H206.042V19.944ZM202.654 22.632L203.592 21.204C201.576 20.532 200.68 19.048 200.638 17.536H203.158V16.066H196.186V17.536H198.748C198.706 19.146 197.796 20.756 195.696 21.428L196.662 22.87C198.174 22.38 199.154 21.386 199.728 20.14C200.288 21.274 201.254 22.184 202.654 22.632ZM206.042 23.654H197.432V25.124H204.194V28.218H206.042V23.654ZM218.851 21.876H220.699V20.35H218.851V15.31H217.003V28.204H218.851V21.876ZM216.163 17.214H213.363V15.534H211.515V17.214H208.659V18.684H216.163V17.214ZM212.453 19.412C210.577 19.412 209.177 20.686 209.177 22.478C209.177 24.312 210.577 25.572 212.453 25.572C214.315 25.572 215.701 24.312 215.701 22.478C215.701 20.686 214.315 19.412 212.453 19.412ZM212.453 24.06C211.557 24.06 210.941 23.5 210.941 22.492C210.941 21.484 211.557 20.91 212.453 20.91C213.349 20.91 213.951 21.512 213.951 22.478C213.951 23.486 213.349 24.06 212.453 24.06ZM232.304 28.19V15.296H230.442V28.19H232.304ZM228.468 16.64H222.28V18.11H226.578C226.312 20.966 224.884 22.996 221.594 24.564L222.56 26.02C227.138 23.822 228.468 20.574 228.468 16.64Z" fill="white"/>
</svg>
